<svg width="22" height="14" viewBox="0 0 22 14" fill="none" xmlns="http://www.w3.org/2000/svg">
<path fill-rule="evenodd" clip-rule="evenodd" d="M21.5 7.00003C21.5 7.19894 21.421 7.38971 21.2803 7.53036C21.1397 7.67101 20.9489 7.75003 20.75 7.75003L3.0605 7.75003L7.781 12.469C7.92183 12.6099 8.00095 12.8009 8.00095 13C8.00095 13.1992 7.92183 13.3902 7.781 13.531C7.64017 13.6719 7.44916 13.751 7.25 13.751C7.05084 13.751 6.85983 13.6719 6.719 13.531L0.719 7.53103C0.649155 7.46136 0.59374 7.3786 0.555931 7.28748C0.518122 7.19636 0.498659 7.09868 0.498659 7.00003C0.498659 6.90138 0.518122 6.8037 0.555931 6.71258C0.59374 6.62146 0.649155 6.5387 0.719 6.46903L6.719 0.469032C6.85983 0.328202 7.05084 0.249084 7.25 0.249084C7.44916 0.249084 7.64017 0.328202 7.781 0.469032C7.92183 0.609862 8.00095 0.800868 8.00095 1.00003C8.00095 1.1992 7.92183 1.3902 7.781 1.53103L3.0605 6.25003L20.75 6.25003C20.9489 6.25003 21.1397 6.32905 21.2803 6.4697C21.421 6.61035 21.5 6.80112 21.5 7.00003Z" fill="white"/>
</svg>
